<?xml version="1.0" encoding="iso-8859-1"?>
<!-- Generator: Adobe Illustrator 29.8.1, SVG Export Plug-In . SVG Version: 9.03 Build 0)  -->
<svg version="1.1" id="Capa_1" xmlns="http://www.w3.org/2000/svg" xmlns:xlink="http://www.w3.org/1999/xlink" x="0px" y="0px"
	 viewBox="0 0 260.83 84.69" style="enable-background:new 0 0 260.83 84.69;" xml:space="preserve">
<g>
	<g>
		<path d="M20.89,10.36c-1.62-2.32-4.27-3.83-7.88-3.83S4.86,8.8,4.86,13.71s4.05,6.1,8.31,7.5c5.4,1.78,11.34,3.51,11.34,11.18
			S18.09,43.4,12.04,43.4C7.4,43.4,2.75,41.51,0,37.73l3.35-2.48c1.67,2.7,4.75,4.8,8.75,4.8s8.48-2.48,8.48-7.4
			c0-5.34-4.48-6.69-9.34-8.21C6.15,22.88,0.97,20.67,0.97,13.76c0-7.4,6.59-10.53,12.2-10.53c5.13,0,8.96,2.16,10.8,4.64
			l-3.08,2.48L20.89,10.36z"/>
		<path d="M68.99,42.43H47.13c-11.07,0-19.33-8.26-19.33-19.6s8.26-19.6,19.33-19.6s19.27,8.26,19.27,19.6
			c0,6.69-3.02,12.63-8.96,16.03v0.11h11.55C68.99,38.97,68.99,42.43,68.99,42.43z M47.13,39.02c9.39,0,15.28-7.61,15.28-16.2
			s-5.88-16.2-15.28-16.2s-15.22,7.61-15.22,16.2S37.63,39.02,47.13,39.02z"/>
		<path style="fill:#EE446F;" d="M72.12,42.43h-4.26L84.37,4.2h3.78l16.41,38.22h-4.32l-4.21-10.04H76.27l-4.16,10.04L72.12,42.43z
			 M77.73,28.82h16.84l-8.42-20.3C86.15,8.52,77.73,28.82,77.73,28.82z"/>
		<path style="fill:#EE446F;" d="M134.3,36.76h0.11V4.2h3.89v38.22h-4.86L111.2,9.54h-0.11v32.88h-3.89V4.2h4.86l22.24,32.55V36.76z
			"/>
		<path style="fill:#EE446F;" d="M157.73,42.43h-3.89V7.66h-12.79V4.2h29.48v3.46h-12.79v34.77H157.73z"/>
		<path style="fill:#EE446F;" d="M177.16,42.43h-3.89V4.2h3.89v38.22V42.43z"/>
	</g>
	<g>
		<path style="fill:#15918A;" d="M88.9,62.11h-6.38V75.3c0,3.38,1.4,4.16,3.38,4.16c0.92,0,1.98-0.29,2.85-0.72l0.15,2.85
			c-1.16,0.43-2.37,0.68-3.86,0.68c-2.42,0-5.8-1.06-5.8-6.04V62.12h-4.69v-2.75h4.69v-6.38h3.28v6.38h6.38v2.75L88.9,62.11z"/>
		<path style="fill:#15918A;" d="M107.79,81.96c-0.1-1.21-0.19-2.9-0.19-3.86h-0.1c-1.26,2.61-4.54,4.44-7.73,4.44
			c-5.75,0-8.6-3.72-8.6-9.32V59.36h3.28v12.51c0,4.73,1.4,7.92,6.14,7.92c3.48,0,6.86-2.8,6.86-8.84V59.36h3.28v17.63
			c0,1.21,0.05,3.43,0.19,4.98h-3.14L107.79,81.96z"/>
		<path style="fill:#15918A;" d="M128.8,64.71c-0.97-1.88-3.04-3.19-5.56-3.19c-2.37,0-4.78,1.01-4.78,3.53
			c0,2.13,1.69,3.09,5.41,3.86c5.31,1.11,7.83,3.09,7.83,6.62c0,5.17-4.35,7-8.5,7c-3.43,0-6.86-1.35-8.94-4.4l2.61-1.93
			c1.16,1.98,3.62,3.53,6.28,3.53c2.8,0,5.31-1.01,5.31-3.96c0-2.37-2.37-3.33-6.67-4.35c-2.66-0.63-6.47-1.79-6.47-6.09
			c0-4.59,3.96-6.57,8.07-6.57c3.14,0,6.47,1.5,7.92,4.06l-2.51,1.88L128.8,64.71z"/>
		<path style="fill:#15918A;" d="M151.85,64.52c-1.06-1.74-3.33-3-5.8-3c-5.27,0-8.65,3.96-8.65,9.13s3.33,9.08,8.6,9.08
			c2.85,0,4.83-1.21,6.14-2.95l2.46,1.84c-1.93,2.37-4.69,3.91-8.6,3.91c-7.29,0-12.08-5.07-12.08-11.88S138.7,58.77,146,58.77
			c3.04,0,6.47,1.3,8.41,3.91L151.85,64.52L151.85,64.52z"/>
		<path style="fill:#15918A;" d="M167.45,82.54c-7,0-12.03-5.07-12.03-11.88s5.02-11.88,12.03-11.88s12.08,5.07,12.08,11.88
			S174.51,82.54,167.45,82.54z M167.45,61.53c-5.22,0-8.55,4.06-8.55,9.13s3.33,9.08,8.55,9.08s8.6-4.01,8.6-9.08
			S172.72,61.53,167.45,61.53z"/>
	</g>
</g>
<g>
	<path style="fill:#15918A;" d="M246.7,40.55h-12.76v-1.21c0-8.29-6.75-15.04-15.04-15.04c-6.9,0-12.73,4.67-14.49,11.02
		c-0.26,1.3-0.4,2.64-0.4,4.02h-2.56c0-1.59,0.21-3.12,0.61-4.58c2.12-10.25,11.22-17.97,22.09-17.97
		c12.44,0,22.56,10.12,22.56,22.56v1.21L246.7,40.55z M236.31,38.13h7.94c-0.63-10.55-9.41-18.93-20.11-18.93
		c-4.59,0-8.83,1.54-12.22,4.14c2.14-0.94,4.5-1.46,6.98-1.46C228.12,21.88,235.69,29.06,236.31,38.13z"/>
	<rect x="222.94" y="17.99" style="fill:#15918A;" width="2.42" height="5.65"/>
	
		<rect x="230.398" y="26.394" transform="matrix(0.7071 -0.7071 0.7071 0.7071 49.2784 174.1762)" style="fill:#15918A;" width="8.98" height="2.42"/>
	<g>
		<path style="fill:#15918A;" d="M226.01,52.44l-10.37-4.6l17.97-26.51C233.61,21.33,226.01,52.44,226.01,52.44z M219.26,46.81
			l5.09,2.26l3.73-15.27L219.26,46.81L219.26,46.81z"/>
		<polygon style="fill:#15918A;" points="226.01,52.44 215.64,47.84 225.17,33.78 227.17,35.14 219.26,46.81 224.35,49.07 
			227.55,35.95 229.9,36.52 		"/>
	</g>
</g>
<path style="fill:#15918A;" d="M224.04,6.04c8.98,0,17.39,4.41,22.49,11.79c4.14,6,5.7,13.25,4.38,20.42
	c-1.31,7.17-5.34,13.4-11.34,17.54c-4.58,3.16-9.93,4.83-15.47,4.83c-8.98,0-17.39-4.41-22.48-11.79
	c-8.55-12.38-5.43-29.41,6.95-37.96C213.15,7.71,218.5,6.04,224.04,6.04 M224.04,0c-6.53,0-13.12,1.91-18.9,5.9
	c-15.15,10.46-18.95,31.21-8.49,46.36c6.47,9.37,16.87,14.4,27.45,14.4c6.53,0,13.12-1.91,18.9-5.9
	c15.15-10.46,18.95-31.21,8.49-46.36C245.02,5.03,234.62,0,224.04,0C224.04,0,224.04,0,224.04,0z"/>
<rect x="246.751" y="55.469" transform="matrix(0.8229 -0.5681 0.5681 0.8229 4.144 154.394)" style="fill:#15918A;" width="6.04" height="30.16"/>
</svg>
