<?xml version="1.0" encoding="iso-8859-1"?>
<!-- Generator: Adobe Illustrator 29.8.1, SVG Export Plug-In . SVG Version: 9.03 Build 0)  -->
<svg version="1.1" id="Capa_1" xmlns="http://www.w3.org/2000/svg" xmlns:xlink="http://www.w3.org/1999/xlink" x="0px" y="0px"
	 viewBox="0 0 70.08 84.69" style="enable-background:new 0 0 70.08 84.69;" xml:space="preserve">
<g>
	<path style="fill:#15918A;" d="M55.95,40.55H43.19v-1.21c0-8.29-6.75-15.04-15.04-15.04c-6.9,0-12.73,4.67-14.49,11.02
		c-0.26,1.3-0.4,2.64-0.4,4.02H10.7c0-1.58,0.21-3.12,0.61-4.58c2.12-10.25,11.22-17.97,22.09-17.97
		c12.44,0,22.56,10.12,22.56,22.56v1.21L55.95,40.55z M45.57,38.13h7.94C52.88,27.58,44.11,19.2,33.4,19.2
		c-4.59,0-8.83,1.54-12.22,4.14c2.14-0.94,4.5-1.46,6.98-1.46C37.38,21.88,44.95,29.06,45.57,38.13z"/>
	<rect x="32.19" y="17.99" style="fill:#15918A;" width="2.42" height="5.65"/>
	
		<rect x="39.655" y="26.387" transform="matrix(0.7071 -0.7071 0.7071 0.7071 -6.5845 39.2982)" style="fill:#15918A;" width="8.98" height="2.42"/>
	<g>
		<path style="fill:#15918A;" d="M35.26,52.44l-10.37-4.6l17.97-26.51C42.86,21.33,35.26,52.44,35.26,52.44z M28.51,46.81l5.09,2.26
			l3.73-15.27C37.33,33.8,28.51,46.81,28.51,46.81z"/>
		<polygon style="fill:#15918A;" points="35.26,52.44 24.89,47.84 34.42,33.78 36.42,35.14 28.51,46.81 33.6,49.07 36.81,35.95 
			39.15,36.52 		"/>
	</g>
</g>
<path style="fill:#15918A;" d="M33.3,6.04c8.98,0,17.39,4.41,22.48,11.79c4.14,6,5.7,13.25,4.38,20.42s-5.34,13.4-11.34,17.54
	c-4.58,3.16-9.93,4.83-15.47,4.83c-8.98,0-17.39-4.41-22.48-11.79c-4.14-6-5.7-13.25-4.38-20.42c1.31-7.17,5.34-13.4,11.34-17.54
	C22.41,7.71,27.76,6.04,33.3,6.04 M33.3,0c-6.53,0-13.12,1.91-18.9,5.9C-0.75,16.36-4.55,37.11,5.9,52.26
	c6.47,9.37,16.87,14.4,27.45,14.4c6.53,0,13.12-1.91,18.9-5.9C67.4,50.3,71.2,29.55,60.74,14.4C54.29,5.03,43.88,0,33.3,0L33.3,0z"
	/>
<rect x="56.015" y="55.47" transform="matrix(0.8229 -0.5681 0.5681 0.8229 -29.6286 46.0315)" style="fill:#15918A;" width="6.04" height="30.16"/>
</svg>
