<?xml version="1.0" encoding="iso-8859-1"?>
<!-- Generator: Adobe Illustrator 29.8.1, SVG Export Plug-In . SVG Version: 9.03 Build 0)  -->
<svg version="1.1" baseProfile="basic" id="Layer_1"
	 xmlns="http://www.w3.org/2000/svg" xmlns:xlink="http://www.w3.org/1999/xlink" x="0px" y="0px" viewBox="0 0 237.135 126.465"
	 xml:space="preserve">
<text transform="matrix(1 0 0 1 9.9012 90.4534)" font-family="'ArialMT'" font-size="5px">Mammary gland</text>
<text transform="matrix(1 0 0 1 33.4493 58.2429)" font-family="'ArialMT'" font-size="5px"> Liver</text>
<text transform="matrix(1 0 0 1 26.0145 67.8801)" font-family="'ArialMT'" font-size="5px">Stomach</text>
<text transform="matrix(1 0 0 1 33.5193 79.9947)" font-family="'ArialMT'" font-size="5px">Heart</text>
<g>
	<g>
		<path fill="#FCDDD6" d="M184.973,87.258c1.21-2.651,4.65-11.667-10.044-32.715c-16.734-23.97-43.417-14.925-45.678-13.573
			c-2.261,1.352-8.819,1.588-8.367-1.578c0.452-3.166-3.166-4.183-3.166-4.183s-0.905,1.018,0.905-3.505
			c1.809-4.523-2.94-6.784-7.915-7.236c-4.975-0.452-13.342,14.02-13.342,14.02c-12.663,0.678-15.377,4.07-17.864,6.106
			c-2.487,2.035-8.593,5.201-12.663,7.01c-4.07,1.809-2.261,5.879-2.261,5.879c3.618,9.271,12.211,9.045,15.151,9.045
			c2.94,0,10.854,5.427,10.854,5.427c6.784,9.497,11.307,11.533,12.889,12.663s-2.487,7.462-5.427,11.985
			c-2.94,4.523-4.749,3.618-8.367,4.296c-3.618,0.678-4.523,2.94-4.523,2.94s4.296-1.357,3.618-0.678s-2.487,2.261-2.487,2.261
			s2.035,0.678,3.618,0.905c1.583,0.226,5.879-2.94,5.427-1.809c-0.452,1.131-0.678,2.487-0.678,2.487l1.809-0.226
			c2.261-0.226,4.296-2.035,5.427-3.844s3.618-4.296,9.497-5.879c5.879-1.583,9.95-3.618,9.95-3.618
			c5.653,8.367,42.512,5.879,42.286,7.236c-0.226,1.357-6.332,4.07-8.819,3.392c-2.487-0.678-4.523-0.226-5.653,0.678
			c-1.131,0.905-5.427,1.357-4.975,2.261c0.452,0.905,4.07,1.131,4.07,1.131l-2.035,1.839c0,0,4.975,2.005,6.784,0
			c1.809-2.005,7.01-2.065,6.332-0.935c-0.678,1.131,4.296,1.357,5.201,0c0.905-1.357,7.01-7.01,9.95-9.724
			c2.94-2.714,2.035-6.332,2.035-6.332s0.123-0.06,0.338-0.166c0.319,0.102,0.657,0.213,0.98,0.321
			c3.377,1.139,6.748,2.431,10.001,3.872c5.321,2.452,10.849,5.088,14.71,9.353c2.393,2.73,2.147,5.085-0.555,7.465
			c-2.097,1.889-4.715,3.265-7.429,4.096c-2.975,0.83-6.061,1.407-9.089,2.004c-5.141,0.964-10.327,1.736-15.544,2.039
			c-1.014,0.051-2.027,0.03-3.052-0.061c-2.167-0.178-4.314-0.145-6.445,0.025c-4.263,0.333-8.44,1.241-12.463,2.532
			c6.133-1.403,12.507-1.974,18.705-0.983c2.122,0.39,4.327,0.376,6.479,0.367c4.274-0.041,8.534-0.341,12.776-0.777
			c3.2-0.359,6.456-0.689,9.622-1.303c4.592-1.063,9.198-3.152,12.197-6.975C215.462,103.645,196.716,92.796,184.973,87.258z"/>
		<path fill="#FCDDD6" d="M92.813,75.421c0.03,0.02,0.06,0.041,0.088,0.061c1.494,1.067-2.348,7.043-5.122,11.312
			c-2.775,4.269-4.482,3.415-7.897,4.055c-3.415,0.64-4.269,2.775-4.269,2.775s4.055-1.281,3.415-0.64
			c-0.64,0.64-2.348,2.134-2.348,2.134s1.921,0.64,3.415,0.854c1.494,0.213,5.549-2.775,5.122-1.707
			c-0.427,1.067-0.64,2.348-0.64,2.348l1.707-0.213c2.134-0.213,4.055-1.921,5.122-3.628s3.415-4.055,8.964-5.549
			c4.57-1.23,7.98-2.75,9.042-3.247C105.082,78.519,97.144,76.273,92.813,75.421z"/>
	</g>
	<g>
		<path fill="#FFFFFF" d="M86.779,48.809c0,0,3.374-2.981,7.337,0C94.116,48.809,90.382,51.495,86.779,48.809z"/>
		<circle fill="#1E1E1E" cx="90.484" cy="48.772" r="1.118"/>
	</g>
	<path fill="#EE9D68" d="M169.266,71.677c1.646,0.83,3.3,1.687,4.708,2.876c1.408,1.19,2.569,2.755,2.946,4.56
		c0.228,1.089,0.164,2.216,0.093,3.326c-0.117,1.833-0.256,3.692-0.884,5.418c-0.242,0.666-0.569,1.323-1.099,1.793
		c-0.53,0.47-1.299,0.721-1.967,0.486c-0.477-0.167-0.842-0.548-1.207-0.897c-1.474-1.409-3.262-2.487-5.195-3.133
		c-1.471-0.492-3.09-0.772-4.249-1.802c-1.812-1.61-1.835-4.447-1.226-6.793c0.347-1.338,0.887-2.686,1.916-3.61
		c0.574-0.515,1.273-0.872,1.982-1.176c1.253-0.538,2.608-0.935,3.966-0.814"/>
	<g>
		<path fill="#DF7272" d="M131.981,74.389c-0.217,2.803-2.783,5.09-2.712,7.901c0.032,1.278,0.62,2.476,1.297,3.561
			c2.277,3.648,5.798,6.575,9.917,7.81s8.814,0.674,12.342-1.784c1.898-1.323,3.408-3.122,5.168-4.624
			c3.453-2.946,7.902-4.784,10.646-8.399c1.697-2.236,2.608-5.056,2.539-7.862c-0.014-0.556-0.072-1.135-0.363-1.609
			c-0.447-0.727-1.326-1.043-2.149-1.27c-4.07-1.123-8.332-1.294-12.551-1.46c-4.035-0.158-8.071-0.316-12.106-0.474
			c-1.89-0.074-3.829-0.142-5.624,0.455c-3.531,1.173-5.806,4.721-6.7,8.333"/>
		<g>
			<path fill="#F7B0B2" d="M133.202,76.716c0.083,0.945,0.123,1.9-0.002,2.843c0.014-0.106,0.028-0.211,0.043-0.317
				c-0.075,0.553-0.209,1.096-0.424,1.611c0.04-0.095,0.08-0.19,0.12-0.284c-0.154,0.363-0.352,0.704-0.593,1.017
				c0.062-0.08,0.124-0.161,0.186-0.241c-0.229,0.293-0.491,0.558-0.785,0.786c0.08-0.062,0.161-0.124,0.241-0.186
				c-0.25,0.191-0.519,0.352-0.808,0.476c0.095-0.04,0.19-0.08,0.284-0.12c-0.254,0.107-0.52,0.183-0.793,0.222
				c0.105-0.014,0.211-0.028,0.317-0.043c-0.209,0.028-0.42,0.034-0.63,0.017c-0.164-0.006-0.317,0.028-0.459,0.103
				c-0.148,0.048-0.275,0.13-0.383,0.246c-0.206,0.207-0.362,0.545-0.349,0.842c0.014,0.308,0.115,0.627,0.349,0.842
				c0.08,0.062,0.161,0.124,0.241,0.186c0.186,0.108,0.386,0.162,0.601,0.163c0.373,0.031,0.754-0.015,1.119-0.088
				c0.355-0.071,0.694-0.211,1.02-0.365c0.342-0.161,0.637-0.38,0.934-0.611c0.221-0.173,0.426-0.364,0.611-0.575
				c0.245-0.28,0.476-0.582,0.667-0.902c0.201-0.336,0.355-0.702,0.491-1.068c0.266-0.718,0.382-1.492,0.436-2.253
				c0.054-0.767,0.014-1.537-0.053-2.301c0.006-0.164-0.028-0.317-0.103-0.459c-0.048-0.148-0.13-0.275-0.246-0.383
				c-0.206-0.207-0.545-0.362-0.842-0.349c-0.308,0.014-0.627,0.115-0.842,0.349C133.348,76.095,133.175,76.405,133.202,76.716
				L133.202,76.716z"/>
		</g>
		<g>
			<path fill="#F7B0B2" d="M134.013,86.489c0.191,0.472,0.399,0.932,0.664,1.367c0.262,0.432,0.568,0.839,0.894,1.225
				c0.266,0.315,0.557,0.61,0.87,0.88c0.382,0.33,0.788,0.638,1.216,0.905c0.476,0.297,0.984,0.53,1.505,0.736
				c0.158,0.05,0.317,0.057,0.475,0.021c0.158-0.007,0.306-0.054,0.443-0.141c0.139-0.075,0.25-0.177,0.334-0.307
				c0.105-0.115,0.176-0.25,0.213-0.405c0.014-0.106,0.028-0.211,0.043-0.317c-0.001-0.215-0.055-0.415-0.163-0.601
				c-0.062-0.08-0.124-0.161-0.186-0.241c-0.149-0.148-0.324-0.25-0.525-0.306c-0.056-0.022-0.112-0.045-0.167-0.068
				c0.095,0.04,0.19,0.08,0.284,0.12c-0.604-0.256-1.173-0.591-1.692-0.992c0.08,0.062,0.161,0.124,0.241,0.186
				c-0.532-0.412-1.011-0.89-1.422-1.422c0.062,0.08,0.124,0.161,0.186,0.241c-0.4-0.52-0.736-1.088-0.992-1.692
				c0.04,0.095,0.08,0.19,0.12,0.284c-0.015-0.035-0.029-0.071-0.044-0.106c-0.037-0.155-0.108-0.29-0.213-0.405
				c-0.084-0.13-0.195-0.232-0.334-0.307c-0.137-0.087-0.284-0.134-0.443-0.141c-0.158-0.035-0.317-0.028-0.475,0.021
				c-0.095,0.04-0.19,0.08-0.284,0.12c-0.179,0.106-0.321,0.248-0.427,0.427c-0.04,0.095-0.08,0.19-0.12,0.284
				C133.956,86.067,133.956,86.278,134.013,86.489L134.013,86.489z"/>
		</g>
		<g>
			<path fill="#F7B0B2" d="M136.744,85.359c0.801,1.451,1.951,2.675,3.305,3.623c0.686,0.48,1.431,0.85,2.209,1.158
				c0.654,0.258,1.334,0.442,2.011,0.625c0.758,0.206,1.52,0.411,2.246,0.716c-0.095-0.04-0.19-0.08-0.284-0.12
				c0.454,0.194,0.889,0.429,1.281,0.73c-0.08-0.062-0.161-0.124-0.241-0.186c0.277,0.216,0.527,0.462,0.742,0.74
				c-0.062-0.08-0.124-0.161-0.186-0.241c0.112,0.15,0.208,0.308,0.281,0.48c-0.04-0.095-0.08-0.19-0.12-0.284
				c0.045,0.114,0.078,0.228,0.096,0.349c-0.014-0.106-0.028-0.211-0.043-0.317c0.01,0.089,0.011,0.175,0.001,0.264
				c0.014-0.106,0.028-0.211,0.043-0.317c-0.012,0.075-0.03,0.144-0.057,0.215c-0.103,0.274-0.022,0.674,0.12,0.917
				c0.145,0.247,0.428,0.483,0.712,0.547c0.305,0.069,0.647,0.054,0.917-0.12c0.274-0.177,0.432-0.407,0.547-0.712
				c0.171-0.454,0.133-1.013-0.04-1.46c-0.177-0.458-0.422-0.829-0.747-1.199c-0.418-0.477-0.951-0.873-1.507-1.175
				c-1.08-0.588-2.28-0.89-3.457-1.213c-0.632-0.174-1.263-0.358-1.868-0.611c0.095,0.04,0.19,0.08,0.284,0.12
				c-0.749-0.317-1.452-0.73-2.097-1.224c0.08,0.062,0.161,0.124,0.241,0.186c-0.643-0.498-1.221-1.073-1.72-1.714
				c0.062,0.08,0.124,0.161,0.186,0.241c-0.298-0.386-0.566-0.793-0.801-1.22c-0.301-0.546-1.098-0.77-1.629-0.427
				C136.618,84.086,136.422,84.775,136.744,85.359L136.744,85.359z"/>
		</g>
		<path fill="#F7B0B2" d="M143.671,61.846c-2.061,1.429-3.275,3.837-3.781,6.293c-0.506,2.456-0.382,4.993-0.255,7.498
			c0.114,2.249,0.269,4.626,1.543,6.483c1.104,1.61,2.898,2.595,4.674,3.407c2.265,1.036,4.743,1.904,7.203,1.522
			c1.685-0.262,3.219-1.089,4.754-1.832c3.856-1.864,8.015-3.311,11.234-6.137s5.272-7.592,3.433-11.46
			c-1.783-3.75-6.294-5.172-10.316-6.206c-1.393-0.358-2.787-0.717-4.18-1.075c-1.366-0.351-3.15-0.544-3.87,0.668
			c-0.403,0.679-0.292,1.593-0.773,2.219c-0.677,0.879-2.033,0.673-3.103,0.38c-2.254-0.617-4.508-1.234-6.762-1.851"/>
		<g>
			<path fill="#DF7272" d="M148.249,75.796c0.053-0.156,0.111-0.31,0.175-0.462c-0.05,0.118-0.1,0.237-0.15,0.356
				c0.219-0.51,0.501-0.989,0.84-1.429c-0.078,0.1-0.155,0.201-0.233,0.301c0.342-0.438,0.734-0.831,1.172-1.173
				c-0.1,0.078-0.201,0.155-0.301,0.233c0.564-0.433,1.188-0.73,1.833-1.02c0.719-0.323,1.456-0.707,1.98-1.313
				c0.383-0.442,0.653-0.898,0.832-1.458c0.141-0.442,0.198-0.939,0.169-1.403c-0.058-0.949-0.356-1.886-0.906-2.666
				c-0.502-0.711-1.095-1.308-1.775-1.847c-0.677-0.536-1.378-1.134-2.172-1.491c-0.557-0.25-1.094-0.438-1.715-0.442
				c-0.572-0.004-1.196,0.166-1.658,0.511c-0.241,0.18-0.449,0.347-0.636,0.579c-0.19,0.236-0.371,0.477-0.529,0.735
				c-0.255,0.416-0.45,0.865-0.627,1.319c-0.333,0.858-0.487,1.814-0.482,2.732c0.005,0.936,0.17,1.902,0.535,2.767
				c0.046,0.194,0.135,0.362,0.266,0.506c0.105,0.162,0.244,0.29,0.418,0.383c0.319,0.187,0.789,0.266,1.147,0.15
				c0.36-0.117,0.708-0.34,0.889-0.684c0.173-0.327,0.301-0.788,0.15-1.147c-0.213-0.505-0.355-1.034-0.428-1.577
				c0.018,0.132,0.035,0.264,0.053,0.396c-0.071-0.559-0.069-1.123,0.004-1.682c-0.018,0.132-0.035,0.264-0.053,0.396
				c0.077-0.558,0.224-1.102,0.442-1.622c-0.05,0.119-0.1,0.237-0.15,0.356c0.185-0.433,0.415-0.851,0.703-1.224
				c-0.078,0.1-0.155,0.201-0.233,0.301c0.101-0.127,0.21-0.243,0.335-0.346c-0.1,0.078-0.201,0.155-0.301,0.233
				c0.101-0.078,0.207-0.142,0.323-0.194c-0.119,0.05-0.237,0.1-0.356,0.15c0.125-0.051,0.252-0.085,0.385-0.103
				c-0.132,0.018-0.264,0.035-0.396,0.053c0.149-0.016,0.295-0.012,0.444,0.008c-0.132-0.018-0.264-0.035-0.396-0.053
				c0.218,0.034,0.426,0.098,0.629,0.182c-0.118-0.05-0.237-0.1-0.356-0.15c0.65,0.277,1.211,0.718,1.767,1.146
				c-0.1-0.078-0.201-0.155-0.301-0.233c0.578,0.448,1.138,0.925,1.591,1.502c-0.078-0.1-0.155-0.201-0.233-0.301
				c0.23,0.298,0.428,0.617,0.576,0.964c-0.05-0.119-0.1-0.237-0.15-0.356c0.122,0.296,0.207,0.603,0.25,0.921
				c-0.018-0.132-0.035-0.264-0.053-0.396c0.033,0.268,0.036,0.535,0.002,0.803c0.018-0.132,0.035-0.264,0.053-0.396
				c-0.032,0.219-0.088,0.43-0.172,0.635c0.05-0.119,0.1-0.237,0.15-0.356c-0.077,0.177-0.173,0.341-0.29,0.495
				c0.078-0.1,0.155-0.201,0.233-0.301c-0.143,0.181-0.308,0.34-0.491,0.481c0.1-0.078,0.201-0.155,0.301-0.233
				c-0.778,0.587-1.746,0.837-2.569,1.348c-1.03,0.64-1.893,1.503-2.553,2.518c-0.363,0.558-0.64,1.178-0.853,1.807
				c-0.119,0.353-0.034,0.832,0.15,1.147c0.181,0.309,0.535,0.603,0.889,0.684c0.381,0.087,0.809,0.068,1.147-0.15
				C147.902,76.469,148.12,76.178,148.249,75.796L148.249,75.796z"/>
		</g>
		<g>
			<path fill="#DF7272" d="M139.617,77.065c1.835,3.293,6.129,4.539,9.626,3.524c1.866-0.541,3.556-1.682,4.869-3.1
				c1.4-1.512,2.369-3.268,3.131-5.168c0.054-0.135,0.108-0.27,0.163-0.404c0.006-0.015,0.012-0.03,0.018-0.045
				c0.049-0.119,0.049-0.119,0-0.001c-0.05,0.118-0.05,0.118,0.002,0c0.013-0.029,0.026-0.059,0.04-0.088
				c0.125-0.275,0.263-0.545,0.425-0.8c0.061-0.095,0.138-0.185,0.194-0.282c-0.176,0.307-0.167,0.21-0.093,0.122
				c0.049-0.058,0.098-0.116,0.148-0.173c0.152-0.169,0.317-0.327,0.491-0.474c0.038-0.032,0.081-0.062,0.118-0.096
				c-0.31,0.29-0.157,0.121-0.058,0.051c0.093-0.066,0.189-0.128,0.286-0.187c0.098-0.059,0.197-0.116,0.298-0.169
				c0.047-0.024,0.333-0.125,0.343-0.165c-0.003,0.012-0.367,0.142-0.144,0.063c0.06-0.021,0.119-0.045,0.179-0.066
				c0.108-0.038,0.217-0.072,0.327-0.102c0.245-0.068,0.493-0.117,0.745-0.151c-0.132,0.018-0.264,0.035-0.396,0.053
				c0.429-0.052,0.858-0.053,1.287,0c-0.132-0.018-0.264-0.035-0.396-0.053c0.176,0.025,0.35,0.058,0.523,0.1
				c0.755,0.183,1.649-0.239,1.831-1.039c0.175-0.767-0.23-1.634-1.039-1.831c-3.06-0.743-6.333,0.827-7.639,3.695
				c-0.187,0.41-0.355,0.83-0.522,1.248c-0.036,0.09-0.072,0.18-0.108,0.269c-0.04,0.098-0.194,0.401,0.014-0.029
				c-0.082,0.168-0.151,0.343-0.231,0.512c-0.277,0.583-0.591,1.149-0.943,1.69c-0.176,0.271-0.378,0.523-0.556,0.792
				c0.276-0.416-0.036,0.042-0.117,0.139c-0.12,0.144-0.243,0.285-0.369,0.423c-0.197,0.216-0.403,0.425-0.616,0.625
				c-0.116,0.109-0.234,0.215-0.355,0.318c-0.06,0.052-0.121,0.103-0.183,0.153c-0.091,0.075-0.405,0.265-0.01,0.012
				c-0.311,0.199-0.6,0.427-0.92,0.614c-0.297,0.174-0.603,0.326-0.916,0.468c-0.274,0.124,0.344-0.133,0.062-0.028
				c-0.1,0.037-0.199,0.076-0.299,0.112c-0.157,0.055-0.315,0.105-0.475,0.148c-0.322,0.088-0.649,0.152-0.98,0.197
				c0.132-0.018,0.264-0.035,0.396-0.053c-0.689,0.088-1.383,0.084-2.072-0.008c0.132,0.018,0.264,0.035,0.396,0.053
				c-0.47-0.067-0.934-0.173-1.384-0.325c-0.112-0.038-0.221-0.081-0.332-0.121c-0.261-0.096,0.347,0.158,0.096,0.041
				c-0.042-0.02-0.085-0.038-0.128-0.058c-0.222-0.104-0.438-0.219-0.647-0.347c-0.099-0.06-0.196-0.124-0.292-0.189
				c-0.048-0.033-0.094-0.067-0.142-0.1c-0.194-0.136,0.241,0.2,0.108,0.085c-0.175-0.152-0.352-0.297-0.516-0.462
				c-0.081-0.082-0.16-0.167-0.236-0.254c-0.038-0.044-0.074-0.089-0.112-0.133c-0.155-0.18,0.183,0.253,0.083,0.109
				c-0.141-0.203-0.279-0.404-0.399-0.621c-0.379-0.681-1.37-0.963-2.036-0.534C139.462,75.473,139.211,76.337,139.617,77.065
				L139.617,77.065z"/>
		</g>
		<g>
			<path fill="#DF7272" d="M163.904,64.342c0.456,0.61,0.865,1.258,1.162,1.962c-0.05-0.119-0.1-0.237-0.15-0.356
				c0.189,0.456,0.327,0.929,0.393,1.418c-0.018-0.132-0.035-0.264-0.053-0.396c0.05,0.399,0.05,0.799-0.001,1.198
				c0.018-0.132,0.035-0.264,0.053-0.396c-0.064,0.471-0.194,0.928-0.379,1.367c0.05-0.119,0.1-0.237,0.15-0.356
				c-0.213,0.495-0.491,0.958-0.82,1.385c0.078-0.1,0.155-0.201,0.233-0.301c-0.377,0.485-0.814,0.92-1.299,1.297
				c0.1-0.078,0.201-0.155,0.301-0.233c-0.668,0.514-1.412,0.919-2.187,1.248c0.119-0.05,0.237-0.1,0.356-0.15
				c-1.142,0.479-2.343,0.793-3.549,1.061c-0.354,0.079-0.71,0.377-0.889,0.684c-0.187,0.319-0.266,0.789-0.15,1.147
				c0.117,0.36,0.34,0.708,0.684,0.889c0.364,0.193,0.741,0.24,1.147,0.15c1.098-0.244,2.193-0.524,3.242-0.936
				c0.617-0.242,1.229-0.507,1.806-0.834c0.572-0.324,1.109-0.711,1.61-1.136c0.381-0.324,0.726-0.688,1.034-1.082
				c0.382-0.489,0.734-0.986,0.993-1.552c0.254-0.557,0.475-1.126,0.571-1.733c0.056-0.358,0.107-0.72,0.11-1.083
				c0.003-0.377-0.049-0.75-0.105-1.122c-0.108-0.721-0.385-1.411-0.703-2.063c-0.274-0.56-0.616-1.083-0.989-1.581
				c-0.094-0.173-0.221-0.313-0.383-0.418c-0.144-0.132-0.312-0.22-0.506-0.266c-0.356-0.098-0.831-0.054-1.147,0.15
				c-0.318,0.205-0.598,0.51-0.684,0.889C163.671,63.56,163.669,64.028,163.904,64.342L163.904,64.342z"/>
		</g>
		<g>
			<path fill="#DF7272" d="M155.55,64.565c0.137-0.263,0.298-0.512,0.479-0.746c-0.078,0.1-0.155,0.201-0.233,0.301
				c0.277-0.356,0.599-0.674,0.955-0.95c-0.1,0.078-0.201,0.155-0.301,0.233c0.385-0.296,0.807-0.541,1.254-0.731
				c-0.119,0.05-0.237,0.1-0.356,0.15c0.454-0.19,0.93-0.322,1.417-0.387c-0.132,0.018-0.264,0.035-0.396,0.053
				c0.447-0.058,0.899-0.061,1.346-0.001c-0.132-0.018-0.264-0.035-0.396-0.053c0.06,0.008,0.12,0.018,0.18,0.028
				c0.198,0.062,0.396,0.071,0.593,0.027c0.198-0.009,0.383-0.068,0.553-0.177c0.173-0.094,0.313-0.221,0.418-0.383
				c0.132-0.144,0.22-0.312,0.266-0.506c0.018-0.132,0.035-0.264,0.053-0.396c-0.001-0.269-0.069-0.519-0.203-0.751
				c-0.078-0.1-0.155-0.201-0.233-0.301c-0.186-0.184-0.405-0.312-0.657-0.383c-0.564-0.097-1.131-0.156-1.702-0.105
				c-0.564,0.051-1.128,0.141-1.665,0.325c-0.53,0.181-1.055,0.412-1.53,0.709c-0.29,0.182-0.561,0.393-0.828,0.607
				c-0.173,0.139-0.338,0.288-0.493,0.447c-0.257,0.264-0.484,0.557-0.701,0.854c-0.147,0.201-0.279,0.413-0.394,0.634
				c-0.109,0.171-0.168,0.355-0.177,0.553c-0.044,0.198-0.035,0.396,0.027,0.593c0.046,0.194,0.135,0.362,0.266,0.506
				c0.105,0.162,0.244,0.29,0.418,0.383c0.118,0.05,0.237,0.1,0.356,0.15c0.264,0.071,0.528,0.071,0.791,0
				c0.119-0.05,0.237-0.1,0.356-0.15C155.24,64.967,155.418,64.789,155.55,64.565L155.55,64.565z"/>
		</g>
		<g>
			<path fill="#DF7272" d="M170.786,74.689c-1.76,0.42-3.52,0.855-5.234,1.439c-1.744,0.594-3.482,1.326-5.008,2.37
				c-0.869,0.594-1.692,1.27-2.391,2.059c-0.263,0.297-0.436,0.647-0.436,1.052c0,0.365,0.162,0.801,0.436,1.052
				c0.284,0.26,0.656,0.454,1.052,0.436c0.381-0.017,0.791-0.141,1.052-0.436c0.452-0.511,0.954-0.974,1.493-1.392
				c-0.1,0.078-0.201,0.155-0.301,0.233c1.075-0.829,2.277-1.472,3.524-2c-0.119,0.05-0.237,0.1-0.356,0.15
				c1.744-0.735,3.57-1.253,5.402-1.713c0.518-0.13,1.038-0.256,1.558-0.38c0.356-0.085,0.707-0.372,0.889-0.684
				c0.187-0.319,0.266-0.789,0.15-1.147C172.361,74.94,171.598,74.495,170.786,74.689L170.786,74.689z"/>
		</g>
		<g>
			<path fill="#DF7272" d="M159.331,75.577c-0.348,0.145-0.69,0.287-1.014,0.48c-0.316,0.19-0.608,0.418-0.896,0.647
				c-0.42,0.334-0.793,0.723-1.138,1.133c-0.781,0.927-1.443,1.943-2.181,2.902c0.078-0.1,0.155-0.201,0.233-0.301
				c-0.502,0.649-1.047,1.266-1.697,1.771c0.1-0.078,0.201-0.155,0.301-0.233c-0.471,0.357-0.982,0.649-1.524,0.883
				c0.118-0.05,0.237-0.1,0.356-0.15c-0.76,0.32-1.56,0.521-2.376,0.636c0.132-0.018,0.264-0.035,0.396-0.053
				c-1.064,0.142-2.153,0.153-3.219,0.015c0.132,0.018,0.264,0.035,0.396,0.053c-0.679-0.092-1.346-0.251-1.979-0.517
				c0.119,0.05,0.237,0.1,0.356,0.15c-0.403-0.174-0.783-0.39-1.131-0.658c0.1,0.078,0.201,0.155,0.301,0.233
				c-0.23-0.183-0.441-0.384-0.631-0.608c-0.236-0.277-0.701-0.436-1.052-0.436c-0.365,0-0.801,0.162-1.052,0.436
				c-0.26,0.284-0.454,0.656-0.436,1.052c0.018,0.412,0.168,0.738,0.436,1.052c0.858,1.007,2.118,1.648,3.384,1.972
				c1.218,0.312,2.517,0.395,3.769,0.317c1.445-0.091,2.822-0.395,4.142-0.992c1.108-0.501,2.079-1.287,2.87-2.205
				c0.831-0.965,1.522-2.037,2.299-3.044c-0.078,0.1-0.155,0.201-0.233,0.301c0.476-0.613,0.99-1.197,1.606-1.673
				c-0.1,0.078-0.201,0.155-0.301,0.233c0.345-0.262,0.714-0.483,1.112-0.654c-0.118,0.05-0.237,0.1-0.356,0.15
				c0.018-0.007,0.035-0.015,0.053-0.022c0.374-0.156,0.676-0.319,0.889-0.684c0.187-0.319,0.266-0.789,0.15-1.147
				c-0.117-0.36-0.34-0.708-0.684-0.889C160.15,75.553,159.691,75.427,159.331,75.577L159.331,75.577z"/>
		</g>
		<g>
			<path fill="#DF7272" d="M167.906,74.28c1.23-0.742,2.259-1.798,3.001-3.025c0.373-0.615,0.668-1.288,0.893-1.97
				c0.226-0.685,0.347-1.402,0.41-2.119c0.07-0.798-0.002-1.604-0.156-2.389c-0.046-0.194-0.135-0.362-0.266-0.506
				c-0.105-0.162-0.244-0.29-0.418-0.383c-0.171-0.109-0.355-0.168-0.553-0.177c-0.198-0.044-0.396-0.035-0.593,0.027
				c-0.36,0.117-0.708,0.34-0.889,0.684c-0.05,0.119-0.1,0.237-0.15,0.356c-0.071,0.264-0.071,0.528,0,0.791
				c0.027,0.139,0.05,0.278,0.069,0.418c-0.018-0.132-0.035-0.264-0.053-0.396c0.084,0.635,0.08,1.277-0.004,1.911
				c0.018-0.132,0.035-0.264,0.053-0.396c-0.093,0.682-0.277,1.348-0.543,1.983c0.05-0.119,0.1-0.237,0.15-0.356
				c-0.265,0.625-0.608,1.215-1.023,1.752c0.078-0.1,0.155-0.201,0.233-0.301c-0.381,0.49-0.82,0.932-1.312,1.313
				c0.1-0.078,0.201-0.155,0.301-0.233c-0.209,0.161-0.427,0.309-0.653,0.446c-0.323,0.195-0.583,0.523-0.684,0.889
				c-0.062,0.198-0.071,0.396-0.027,0.593c0.009,0.198,0.068,0.383,0.177,0.553c0.205,0.318,0.51,0.598,0.889,0.684
				C167.147,74.518,167.558,74.49,167.906,74.28L167.906,74.28z"/>
		</g>
	</g>
	<path fill="#8E6EAF" d="M155.501,53.05c2.33,0.437,4.649,1.045,6.762,2.12s4.02,2.646,5.206,4.699
		c0.197,0.34,0.367,0.789,0.128,1.101c-0.113,0.148-0.295,0.225-0.472,0.282c-1.917,0.617-3.919-0.416-5.855-0.969
		c-2.328-0.665-4.859-0.652-7.039-1.705c-0.892-0.431-1.761-1.123-1.955-2.095c-0.179-0.893,0.289-1.838,1.024-2.377
		S154.593,52.978,155.501,53.05"/>
	<path fill="#666EB3" d="M148.715,54.488c1.746-1.23,4.327-1.094,5.938,0.312c1.611,1.406,2.097,3.948,1.118,5.847
		c-0.607,1.178-1.664,2.047-2.692,2.882c-1.447,1.175-2.893,2.349-4.34,3.524c-0.743,0.603-1.576,1.239-2.533,1.209
		c-1.02-0.032-1.858-0.821-2.44-1.661c-0.778-1.122-1.29-2.426-1.485-3.778c-0.103-0.718-0.116-1.463,0.099-2.155
		c0.329-1.061,1.149-1.889,1.978-2.627c1.183-1.054,2.444-2.021,3.769-2.891"/>
	<path fill="#74CDDF" d="M149.405,49.719c1.533,1.075,2.574,2.826,2.786,4.686c0.213,1.86-0.406,3.8-1.657,5.194
		c-0.397,0.442-0.864,0.837-1.419,1.048c-0.5,0.19-1.046,0.222-1.581,0.224c-1.8,0.009-3.718-0.345-5.021-1.586
		c-0.559-0.533-0.996-1.318-0.779-2.06c0.098-0.337,0.32-0.624,0.546-0.893c1.164-1.389,2.647-2.753,2.76-4.562
		c0.021-0.337-0.008-0.681,0.075-1.008c0.204-0.802,1.056-1.306,1.883-1.363C147.824,49.342,148.636,49.411,149.405,49.719"/>
	<g>
		<path fill="#F08080" d="M95.586,78.583c-1.611,2.396-3.223,4.793-4.834,7.189c-0.77,1.145-1.573,2.412-1.445,3.786
			c0.014,0.153,0.044,0.314,0.143,0.432c0.243,0.29,0.709,0.16,1.05-0.003c3.389-1.612,6.356-4.069,9.869-5.391
			c0.808-0.304,1.69-0.58,2.223-1.258c0.679-0.863,0.572-2.123,0.148-3.137c-0.63-1.506-1.969-2.769-3.581-3.028
			c-1.612-0.259-3.414,0.67-3.899,2.229"/>
		<g>
			<path fill="#F7B3B5" d="M91.487,89.501c0.734-1.278,1.555-2.505,2.455-3.672c-0.078,0.1-0.155,0.201-0.233,0.301
				c1.315-1.7,2.796-3.271,4.42-4.68c0.46-0.399,0.931-0.784,1.412-1.156c-0.1,0.078-0.201,0.155-0.301,0.233
				c0.011-0.008,0.021-0.017,0.032-0.025c0.173-0.094,0.313-0.221,0.418-0.383c0.132-0.144,0.22-0.312,0.266-0.506
				c0.098-0.356,0.054-0.831-0.15-1.147c-0.205-0.318-0.51-0.598-0.889-0.684c-0.132-0.018-0.264-0.035-0.396-0.053
				c-0.269,0.001-0.519,0.069-0.751,0.203c-1.414,1.091-2.755,2.261-3.988,3.556c-1.223,1.286-2.344,2.675-3.358,4.131
				c-0.537,0.771-1.04,1.566-1.508,2.38c-0.193,0.337-0.253,0.771-0.15,1.147c0.095,0.345,0.362,0.719,0.684,0.889
				c0.345,0.182,0.764,0.274,1.147,0.15C90.965,90.066,91.29,89.843,91.487,89.501L91.487,89.501z"/>
		</g>
		<g>
			<path fill="#F7B3B5" d="M90.86,90.462c2.9-2.183,5.942-4.175,9.103-5.959c0.894-0.504,1.798-0.992,2.71-1.463
				c0.322-0.166,0.59-0.548,0.684-0.889c0.098-0.356,0.054-0.831-0.15-1.147c-0.205-0.318-0.51-0.598-0.889-0.684
				c-0.402-0.092-0.778-0.041-1.147,0.15c-3.225,1.665-6.341,3.541-9.319,5.615c-0.842,0.587-1.674,1.189-2.494,1.806
				c-0.173,0.094-0.313,0.221-0.418,0.383c-0.132,0.144-0.22,0.312-0.266,0.506c-0.098,0.356-0.054,0.831,0.15,1.147
				c0.205,0.318,0.51,0.598,0.889,0.684C90.077,90.695,90.547,90.698,90.86,90.462L90.86,90.462z"/>
		</g>
	</g>
	
		<ellipse transform="matrix(0.5 -0.866 0.866 0.5 31.4919 159.088)" fill="#E2E318" cx="153.52" cy="52.271" rx="1.572" ry="2.242"/>
	<path fill="#569AD3" d="M98.339,69.958c-0.701,1.271-0.856,2.804-0.569,4.227c0.286,1.423,0.993,2.739,1.904,3.869
		c0.77,0.956,1.813,1.842,3.04,1.855c1.367,0.015,2.474-1.028,3.572-1.843c0.676-0.502,1.423-0.96,1.867-1.676
		c0.694-1.117,0.39-2.742-0.66-3.533c-0.33-0.249-0.715-0.418-1.041-0.674c-0.623-0.489-0.97-1.24-1.454-1.867
		c-0.484-0.627-1.259-1.17-2.021-0.954c-0.459,0.13-0.836,0.52-1.312,0.545c-0.503,0.027-0.922-0.358-1.391-0.543
		C99.355,69.001,98.656,69.023,98.339,69.958"/>
	<path fill="#F8A872" d="M135.281,53.241c2.713-1.783,5.82-2.962,9.033-3.426c0.894-0.129,1.942-0.15,2.54,0.527
		c0.271,0.307,0.401,0.713,0.491,1.113c0.703,3.124-0.593,6.313-1.861,9.253c-1.832,4.247-3.664,8.494-5.495,12.741
		c-0.6,1.392-1.201,2.785-1.714,4.211c-0.554,1.541-1.009,3.128-1.77,4.577s-1.879,2.782-3.385,3.427
		c-0.702,0.301-1.49,0.442-2.238,0.289c-1.348-0.274-2.337-1.428-3.02-2.622c-1.1-1.925-1.684-4.141-1.675-6.357
		c0.007-1.757,0.377-3.49,0.745-5.208c0.718-3.35,1.44-6.714,2.644-9.92c1.204-3.207,2.919-6.275,5.386-8.652"/>
	<path fill="#91D2C6" d="M108.585,73.86c5.098-2.611,9.008-6.986,13.078-11.007s8.68-7.91,14.29-9.087
		c0.702-0.147,1.492-0.234,2.085,0.167c1.044,0.706,0.754,2.287,0.345,3.477c-1.002,2.918-0.914,6.591-1.916,9.509
		c-1.113,3.243-2.148,6.068-3.503,9.218c-0.548,1.274-1.699,2.777-2.713,3.726c-0.815,0.763-2.472,0.712-3.519,1.104
		c-5.501,2.06-12.06,1.353-16.76-2.161c-0.869-0.65-1.703-1.431-2.06-2.452s-0.091-2.326,0.845-2.874"/>
	<path fill="#AC7EB6" d="M104.421,58.031c2.838-2.441,6.381-3.702,9.881-4.793c5.564-1.735,11.36-3.163,17.179-2.419
		c1.943,0.248,4.073,0.887,5.159,2.69c1.071,1.78,0.744,4.175-0.226,5.952c-0.97,1.777-2.474,3.104-3.849,4.523
		c-2.133,2.201-4.152,4.791-6.993,5.69c-1.578,0.499-3.271,0.422-4.928,0.316c-4.054-0.259-8.104-0.665-12.142-1.217
		c-1.067-0.146-2.154-0.308-3.137-0.808c-1.609-0.818-2.812-2.56-3.079-4.458c-0.267-1.898,0.411-3.889,1.736-5.094"/>
	<g>
		<path fill="#569AD3" d="M114.313,77.395c-0.956,1.734-1.167,3.825-0.776,5.765c0.391,1.941,1.354,3.737,2.597,5.278
			c1.051,1.304,2.473,2.512,4.147,2.53c1.865,0.02,3.375-1.402,4.872-2.513c0.922-0.685,1.941-1.31,2.547-2.286
			c0.946-1.524,0.532-3.74-0.901-4.819c-0.45-0.339-0.976-0.571-1.419-0.919c-0.85-0.667-1.323-1.692-1.984-2.547
			s-1.718-1.597-2.757-1.302c-0.626,0.178-1.14,0.709-1.79,0.744c-0.686,0.036-1.258-0.488-1.897-0.741
			C115.701,76.089,114.746,76.119,114.313,77.395"/>
		<circle fill="#90CBEF" cx="120.001" cy="87.876" r="1.063"/>
	</g>
	<path fill="#ED3E3E" d="M107.602,77.617c-1.648-1.03-3.028-2.675-3.245-4.607c-0.072-0.642-0.015-1.29,0.041-1.934
		c0.072-0.815,0.144-1.63,0.216-2.445c0.048-0.541,0.098-1.092,0.304-1.595c0.288-0.702,0.907-1.281,1.65-1.434
		c0.995-0.205,1.976,0.341,2.84,0.877c0.532,0.33,1.067,0.67,1.496,1.125c0.784,0.832,1.147,1.994,1.197,3.135
		c0.049,1.142-0.19,2.276-0.478,3.382c-0.259,0.992-0.579,2.009-1.271,2.766c-0.692,0.756-1.856,1.174-2.773,0.717"/>
	<path fill="#F49092" d="M107.472,74.271c0.021,0.258,0.007,0.523,0.045,0.786c0.033,0.262,0.14,0.525,0.335,0.706
		c0.102,0.097,0.109,0.087,0.013-0.012c-0.184-0.187-0.275-0.444-0.297-0.7c-0.026-0.258,0-0.519-0.011-0.785
		c-0.012-0.263-0.046-0.542-0.207-0.778c-0.162-0.237-0.424-0.361-0.65-0.481c-0.086-0.045-0.171-0.094-0.251-0.146
		c0.044-0.009,0.088-0.023,0.128-0.043c0.081-0.049,0.142-0.088,0.223-0.098c0.154-0.011,0.347,0.004,0.467,0.104
		c0.06,0.054,0.1,0.134,0.172,0.193c0.071,0.06,0.17,0.079,0.257,0.058c0.088-0.021,0.161-0.069,0.238-0.106l0.232-0.113
		c0.041-0.02,0.039-0.024-0.003-0.005l-0.236,0.103c-0.079,0.034-0.155,0.078-0.237,0.094c-0.081,0.016-0.167-0.006-0.226-0.06
		c-0.061-0.054-0.097-0.134-0.162-0.199c-0.068-0.067-0.158-0.097-0.244-0.116c-0.087-0.017-0.173-0.032-0.267-0.023
		c-0.093,0.006-0.184,0.058-0.251,0.095c-0.063,0.029-0.135,0.038-0.205,0.033c-0.076-0.065-0.139-0.137-0.167-0.226
		c-0.033-0.1-0.022-0.22,0.009-0.33c0.034-0.11,0.093-0.213,0.169-0.311c0.148-0.197,0.353-0.368,0.512-0.61
		c0.043-0.067,0.08-0.141,0.109-0.22c0.128,0.219,0.284,0.421,0.468,0.598c0.178,0.17,0.384,0.311,0.623,0.404
		c0.246,0.086,0.493,0.083,0.716,0.101c0.02,0.001,0.04,0.008,0.06,0.01c0.011,0.005,0.02,0.01,0.032,0.016
		c0.055,0.025,0.106,0.053,0.154,0.086c0.096,0.066,0.172,0.155,0.226,0.26c0.087,0.148,0.09,0.334,0.137,0.515c0,0,0,0,0,0.001
		c0.003,0.065,0.026,0.117,0.024,0.165c-0.001,0.047-0.034,0.087-0.073,0.128c-0.07,0.091-0.133,0.185-0.2,0.277
		c-0.122,0.189-0.172,0.448-0.052,0.648c0.006,0.029,0.009,0.029,0.004-0.001c-0.11-0.205-0.05-0.451,0.076-0.63
		c0.069-0.088,0.135-0.178,0.206-0.262c0.034-0.034,0.076-0.078,0.088-0.137c0.002,0.003,0.002,0.006,0.003,0.009
		c0.13,0.244,0.416,0.311,0.548,0.51c0.131,0.209,0.119,0.475,0.131,0.721c0.003,0.067,0.009,0.066,0.008,0
		c-0.002-0.246,0.025-0.51-0.105-0.742c-0.144-0.226-0.418-0.301-0.519-0.525c-0.113-0.208-0.062-0.479-0.184-0.725
		c-0.044-0.095-0.112-0.181-0.19-0.254c0.302,0.087,0.594,0.241,0.858,0.417c0.187,0.129,0.353,0.277,0.459,0.473
		c0.11,0.193,0.174,0.414,0.215,0.638c0.082,0.451,0.075,0.918,0.11,1.381c0.023,0.247,0.044,0.243,0.031-0.002
		c-0.015-0.462,0.013-0.927-0.051-1.393c-0.032-0.232-0.088-0.466-0.198-0.682c-0.083-0.17-0.211-0.314-0.352-0.436
		c0.098,0.017,0.197,0.022,0.296,0.015c0.084-0.007,0.17-0.024,0.248-0.062c0.075-0.049,0.133-0.06,0.21-0.023l0.442,0.212
		c0.148,0.07,0.313,0.119,0.478,0.107c0.044-0.003,0.043-0.007,0-0.006c-0.336,0.007-0.605-0.219-0.901-0.356
		c-0.038-0.017-0.081-0.034-0.131-0.031c-0.05,0.004-0.089,0.03-0.123,0.045c-0.07,0.03-0.149,0.043-0.228,0.046
		c-0.158,0.005-0.32-0.021-0.461-0.084c-0.004,0-0.006,0-0.01-0.001c-0.174-0.127-0.359-0.238-0.554-0.331
		c-0.212-0.101-0.451-0.185-0.692-0.208c-0.237-0.028-0.461-0.038-0.653-0.116c-0.19-0.084-0.368-0.216-0.518-0.372
		c-0.3-0.314-0.519-0.717-0.613-1.138c-0.047-0.21-0.061-0.424-0.029-0.625c0.005-0.051,0.018-0.1,0.033-0.147
		c0.013-0.05,0.026-0.093,0.049-0.139c0.026-0.056,0.057-0.115,0.091-0.177l0.09,0.187c0.045,0.084,0.096,0.173,0.184,0.244
		c0.044,0.034,0.095,0.064,0.16,0.074c0.062,0.009,0.117-0.001,0.166-0.015c0.186-0.066,0.335-0.115,0.514-0.132
		c0.015-0.002,0.032-0.006,0.046,0c0.147,0.057,0.351,0.322,0.438,0.453c0.052,0.078,0.082,0.191,0.155,0.269
		c0.07,0.081,0.154,0.144,0.239,0.201c0.086,0.057,0.183,0.107,0.287,0.123c0.101,0.017,0.2,0.033,0.269,0.104
		c0.142,0.141,0.155,0.363,0.202,0.556c0.013,0.052,0.018,0.051,0.007-0.001c-0.04-0.194-0.038-0.416-0.186-0.578
		c-0.073-0.082-0.187-0.106-0.283-0.126c-0.097-0.02-0.182-0.069-0.263-0.127c-0.167-0.118-0.292-0.258-0.352-0.461
		c-0.073-0.158-0.178-0.309-0.331-0.415c0.099,0.005,0.198,0.016,0.299,0.031c0.351,0.051,0.707,0.157,0.959,0.414
		c0.251,0.264,0.599,0.464,0.97,0.45c0.097-0.004,0.096-0.012,0-0.012c-0.368-0.003-0.693-0.211-0.927-0.478
		c-0.225-0.251-0.546-0.38-0.865-0.453c0.023-0.009,0.046-0.022,0.068-0.043c0.04-0.043,0.039-0.098,0.042-0.134
		c0.003-0.039,0.006-0.076,0.016-0.111c0.044-0.132,0.187-0.236,0.319-0.304c0.14-0.069,0.295-0.097,0.453-0.113
		c0.156-0.018,0.318-0.022,0.468,0.032c0.039,0.015,0.041,0.011,0.002-0.005c-0.149-0.06-0.314-0.064-0.472-0.052
		c-0.158,0.009-0.321,0.03-0.47,0.096c-0.145,0.071-0.293,0.157-0.363,0.326c-0.03,0.079-0.009,0.191-0.05,0.212
		c-0.055,0.028-0.179,0.052-0.24,0.054c-0.147,0.004-0.294-0.045-0.445-0.036c-0.184,0.006-0.385,0.063-0.542,0.113
		c-0.083,0.019-0.129,0.009-0.184-0.039c-0.053-0.045-0.095-0.118-0.131-0.195l-0.108-0.25c-0.012-0.024-0.023-0.045-0.034-0.066
		c0.042-0.087,0.081-0.181,0.102-0.292c0.031-0.15,0.01-0.311-0.031-0.441c-0.084-0.266-0.227-0.474-0.357-0.668
		c-0.148-0.222-0.367-0.406-0.58-0.532c-0.106-0.065-0.211-0.122-0.31-0.178c-0.086-0.052-0.228-0.127-0.314-0.168
		c-0.112-0.017-0.198-0.032-0.248-0.032c-0.055,0.005-0.09-0.051-0.131-0.051c-0.042-0.006-0.141,0.05-0.106,0.196
		c0.042,0.144,0.156,0.252,0.261,0.343c0.125,0.055,0.189,0.085,0.305,0.147c0.105,0.054,0.207,0.103,0.301,0.156
		c0.189,0.103,0.337,0.219,0.456,0.378c0.136,0.183,0.262,0.361,0.325,0.537c0.031,0.089,0.043,0.165,0.032,0.244
		c-0.011,0.082-0.047,0.175-0.093,0.274c-0.046,0.099-0.102,0.203-0.152,0.324c-0.026,0.06-0.045,0.128-0.059,0.191
		c-0.017,0.064-0.03,0.128-0.035,0.193c-0.029,0.255,0.001,0.506,0.063,0.743l0.041,0.284c0.014,0.056,0.018,0.097,0.015,0.154
		c-0.006,0.105-0.043,0.21-0.103,0.312c-0.119,0.205-0.314,0.386-0.474,0.614c-0.139,0.195-0.247,0.452-0.204,0.715
		c-0.017,0.087-0.043,0.168-0.101,0.235c-0.113,0.135-0.306,0.246-0.38,0.44c-0.148,0.377-0.096,0.771-0.134,1.154
		c-0.001,0.052,0.004,0.051,0.007,0c0.033-0.191,0.029-0.385,0.05-0.576c0.028-0.191,0.044-0.386,0.128-0.554
		c0.077-0.177,0.251-0.26,0.392-0.412c0.037-0.041,0.064-0.086,0.085-0.132c0.058,0.129,0.159,0.229,0.264,0.3
		c0.117,0.08,0.238,0.137,0.357,0.194c0.237,0.111,0.475,0.216,0.622,0.414C107.402,73.754,107.451,74.017,107.472,74.271z"/>
	<g>
		<path fill="#D7E490" d="M128.95,54.77c5.807,8.498,16.531,9.593,25.29,13.384c4.852,2.1,9.789,5.482,12.552,10.102
			c2.798,4.678,2.334,10.642-0.798,15.021c-0.43,0.601,0.564,1.173,0.989,0.578c2.73-3.817,3.583-8.847,2.098-13.33
			c-1.522-4.595-5.439-8.177-9.39-10.762c-9.319-6.097-23.019-5.717-29.752-15.571C129.525,53.587,128.532,54.159,128.95,54.77
			L128.95,54.77z"/>
	</g>
	<g>
		<path fill="#D7E490" d="M172.838,69.425c4.558,3.086,6.466,8.7,5.084,13.993c-0.747,2.861-2.263,5.04-4.849,6.507
			c-2.276,1.292-4.699,2.364-7.043,3.526c-0.661,0.327-0.081,1.316,0.578,0.989c2.889-1.432,6.192-2.637,8.747-4.64
			c2.263-1.774,3.48-4.603,3.952-7.383c0.925-5.458-1.302-10.876-5.89-13.982C172.804,68.021,172.231,69.013,172.838,69.425
			L172.838,69.425z"/>
	</g>
	<g>
		
			<ellipse transform="matrix(0.9886 -0.1507 0.1507 0.9886 -11.6968 25.6397)" fill="#F7C0D8" cx="163.267" cy="89.97" rx="3.644" ry="5.567"/>
		<path fill="#F289B7" d="M156.07,72.209c3.411,0.843,6.215,3.767,6.915,7.21c0.249,1.223,0.259,2.517,0.786,3.648
			c0.938,2.013,3.263,3.024,4.448,4.902c1.109,1.757,1.056,3.999,0.745,6.054c-0.093,0.615-0.412,1.394-1.03,1.328
			c-0.47-0.05-0.714-0.577-0.835-1.033c-0.541-2.043-0.437-4.223-1.055-6.244c-0.274-0.895-0.701-1.765-1.384-2.405
			c-0.683-0.639-1.651-1.018-2.569-0.839c-1.747,0.34-2.562,2.421-2.554,4.201s0.517,3.589,0.083,5.316
			c-0.144,0.575-0.542,1.221-1.133,1.172c-0.44-0.037-0.744-0.454-0.922-0.857c-0.566-1.284-0.464-2.749-0.351-4.147
			c0.145-1.802,0.345-3.739,1.536-5.099c0.748-0.853,1.849-1.425,2.326-2.455c0.641-1.386-0.095-2.988-0.817-4.333
			c-0.746-1.389-1.56-2.85-2.931-3.627c-0.616-0.349-1.322-0.545-1.875-0.987c-0.553-0.442-0.906-1.273-0.514-1.862
			c0.457-0.198,1.031-0.085,1.377,0.273"/>
	</g>
	
		<ellipse transform="matrix(0.7627 -0.6468 0.6468 0.7627 -5.1004 97.3897)" fill="#D7E490" cx="130.16" cy="55.645" rx="2.36" ry="3.585"/>
	<ellipse fill="#F2797B" cx="107.854" cy="47.906" rx="6.767" ry="2.71"/>
	<path fill="#F27778" d="M113.695,46.196c6.43,2.196,13.442,2.041,20.166,1.416c3.59-0.484,7.252-0.859,10.873-0.624
		c15.1,0.52,29.681,7.734,33.846,23.214c1.003,3.505,1.457,7.119,1.599,10.719c0,0-1.332,0.059-1.332,0.059
		c-0.249-3.504-0.801-6.982-1.861-10.292c-5.411-18.196-25.96-23.049-42.726-19.767c-7.304,0.908-15.006,1.284-22.127-1.043
		C112.134,49.878,113.695,46.196,113.695,46.196L113.695,46.196z"/>
	<path fill="#5B6BB1" d="M66.342,58.376c1.121-0.283,2.325-0.647,3.007-1.581c0.488-0.669,0.625-1.521,0.85-2.317
		c0.388-1.374,1.078-2.661,2.006-3.745c0.247-0.289,0.523-0.571,0.877-0.711c0.423-0.167,0.898-0.108,1.348-0.042
		c1.73,0.254,3.561,0.622,4.819,1.836c1.044,1.008,1.562,2.487,2.676,3.416c0.137,0.114,0.288,0.227,0.355,0.393
		c0.138,0.341-0.175,0.729-0.534,0.81c-0.359,0.082-0.728-0.048-1.074-0.175c-1.113-0.411-2.227-0.821-3.34-1.232
		c-0.31-0.114-0.651-0.23-0.963-0.122c-0.282,0.097-0.474,0.353-0.64,0.601c-1.464,2.191-2.328,4.859-4.354,6.544
		c-0.414,0.345-0.894,0.649-1.43,0.699c-1.03,0.096-1.886-0.736-2.582-1.502c-0.605-0.665-1.209-1.33-1.814-1.996"/>
	<path fill="#5B6BB1" d="M80.265,53.312c6.56,6.879,15.38,12.371,25.033,13.218c0,0-0.025,0.714-0.025,0.714
		c-7.588-0.048-14.887-2.989-21.15-7.153c-2.111-1.417-4.093-2.908-6.029-4.71C78.094,55.382,80.265,53.312,80.265,53.312
		L80.265,53.312z"/>
	<path fill="#84C994" d="M70.703,63.994c1.398-0.709,2.659-1.689,3.692-2.869c0.541-0.618,1.027-1.297,1.67-1.808
		c0.643-0.511,1.499-0.842,2.291-0.623c0.245,0.067,0.483,0.192,0.634,0.396c0.236,0.32,0.212,0.759,0.137,1.149
		c-0.32,1.646-1.349,3.053-2.35,4.398c-0.434,0.583-0.914,1.2-1.607,1.418c-0.612,0.192-1.272,0.034-1.893-0.124
		c-0.624-0.159-1.249-0.318-1.873-0.477c-0.287-0.073-0.587-0.153-0.808-0.351c-0.221-0.198-0.33-0.554-0.161-0.798"/>
	<path fill="#84C994" d="M78.851,57.512c7.813,4.945,16.627,8.88,25.834,10.299c0,0-0.143,1.64-0.143,1.64
		c-2.43-0.132-4.867-0.378-7.263-0.837c-7.261-1.387-14.161-3.831-20.785-7.172C76.494,61.443,78.851,57.512,78.851,57.512
		L78.851,57.512z"/>
	<path fill="#FFFFFF" d="M185.083,89.333c0.239,0.621-0.119,1.336-0.639,1.751c-0.52,0.415-1.174,0.612-1.788,0.869
		c-0.332,0.139-0.716,0.415-0.625,0.764c0.052,0.199,0.244,0.324,0.423,0.427c1.5,0.867,3.074,1.606,4.699,2.207
		c0.075,0.028,0.153,0.056,0.233,0.052c0.069-0.004,0.135-0.031,0.199-0.059c0.379-0.162,0.758-0.323,1.138-0.485
		c0.253-0.108,0.512-0.22,0.706-0.415c0.232-0.234,0.343-0.558,0.441-0.873c0.147-0.475,0.28-0.979,0.167-1.463
		c-0.172-0.736-0.855-1.221-1.487-1.636c-0.851-0.558-1.717-1.124-2.691-1.417c-0.183-0.055-0.381-0.1-0.563-0.04
		c-0.182,0.06-0.328,0.263-0.261,0.442"/>
	<path fill="#FFFFFF" d="M191.284,92.756c0.295,1.217-0.413,2.598-1.574,3.068c-0.283,0.115-0.66,0.307-0.569,0.599
		c0.033,0.105,0.123,0.18,0.213,0.242c0.276,0.191,0.588,0.322,0.897,0.452c0.57,0.239,1.141,0.479,1.711,0.718
		c0.432,0.181,0.871,0.364,1.335,0.428c0.464,0.064,0.966-0.005,1.34-0.287c0.635-0.479,0.723-1.389,0.692-2.184
		c-0.01-0.255-0.028-0.518-0.145-0.745c-0.081-0.157-0.204-0.287-0.33-0.411c-0.962-0.952-2.144-1.682-3.426-2.116"/>
	<path fill="#FFFFFF" d="M196.738,95.704c0.295,1.217-0.413,2.598-1.574,3.068c-0.283,0.115-0.66,0.307-0.569,0.599
		c0.033,0.105,0.123,0.18,0.213,0.242c0.276,0.191,0.588,0.322,0.897,0.452c0.57,0.239,1.141,0.479,1.711,0.718
		c0.432,0.181,0.871,0.364,1.335,0.428c0.464,0.064,0.966-0.005,1.34-0.287c0.635-0.479,0.723-1.389,0.692-2.184
		c-0.01-0.255-0.028-0.518-0.145-0.745c-0.081-0.157-0.204-0.287-0.33-0.411c-0.962-0.952-2.144-1.682-3.426-2.116"/>
	<path fill="#FFFFFF" d="M202.707,99.553c-0.132,1.119-1.161,2.061-2.286,2.094c-0.274,0.008-0.653,0.053-0.667,0.327
		c-0.005,0.098,0.048,0.19,0.104,0.271c0.173,0.247,0.395,0.455,0.615,0.662c0.406,0.38,0.812,0.76,1.218,1.14
		c0.308,0.288,0.62,0.579,0.992,0.779c0.372,0.199,0.816,0.298,1.219,0.177c0.685-0.205,1.044-0.945,1.267-1.624
		c0.072-0.218,0.138-0.445,0.111-0.673c-0.019-0.158-0.083-0.306-0.15-0.45c-0.514-1.104-1.282-2.088-2.227-2.855"/>
	<path fill="#FFFFFF" d="M206.718,104.319c-0.424,1.043-1.666,1.679-2.76,1.412c-0.267-0.065-0.643-0.122-0.73,0.138
		c-0.031,0.094-0.004,0.196,0.029,0.289c0.101,0.284,0.26,0.544,0.418,0.801c0.291,0.474,0.581,0.949,0.872,1.423
		c0.22,0.359,0.444,0.723,0.749,1.014s0.707,0.504,1.129,0.495c0.715-0.016,1.257-0.634,1.652-1.23
		c0.127-0.191,0.252-0.393,0.286-0.62c0.023-0.157,0.002-0.317-0.025-0.474c-0.202-1.2-0.681-2.353-1.389-3.344"/>
	<path fill="#FFFFFF" d="M208.022,112.19c-0.977,0.254-2.098-0.299-2.492-1.228c-0.096-0.226-0.256-0.528-0.49-0.451
		c-0.084,0.028-0.143,0.102-0.192,0.175c-0.15,0.225-0.252,0.478-0.352,0.729c-0.185,0.463-0.371,0.925-0.556,1.388
		c-0.14,0.351-0.282,0.706-0.328,1.081c-0.045,0.375,0.016,0.778,0.248,1.076c0.394,0.506,1.128,0.564,1.768,0.529
		c0.205-0.011,0.417-0.029,0.598-0.126c0.125-0.067,0.229-0.168,0.327-0.271c0.755-0.788,1.327-1.749,1.66-2.788"/>
	<path fill="#FFFFFF" d="M204.47,117.195c-0.988-0.207-1.746-1.201-1.686-2.208c0.015-0.246,0.005-0.587-0.238-0.622
		c-0.087-0.013-0.173,0.027-0.25,0.071c-0.234,0.135-0.438,0.316-0.64,0.496c-0.372,0.332-0.744,0.664-1.115,0.996
		c-0.282,0.252-0.567,0.507-0.774,0.823s-0.331,0.704-0.256,1.074c0.128,0.628,0.76,1.007,1.348,1.261
		c0.189,0.081,0.387,0.159,0.592,0.153c0.142-0.004,0.28-0.049,0.414-0.097c1.026-0.37,1.966-0.977,2.727-1.759"/>
	<path fill="#FFFFFF" d="M199.462,119.52c-0.748-0.386-1.136-1.353-0.864-2.149c0.066-0.194,0.135-0.47-0.053-0.552
		c-0.067-0.03-0.145-0.017-0.217,0.002c-0.218,0.056-0.422,0.157-0.624,0.257c-0.372,0.184-0.745,0.368-1.117,0.552
		c-0.282,0.14-0.568,0.281-0.805,0.489s-0.423,0.492-0.444,0.806c-0.037,0.533,0.387,0.978,0.803,1.312
		c0.134,0.107,0.275,0.214,0.442,0.254c0.115,0.028,0.236,0.023,0.354,0.014c0.907-0.069,1.797-0.348,2.581-0.808"/>
	<path fill="#FFFFFF" d="M195.292,120.949c-0.66-0.381-0.971-1.273-0.691-1.981c0.068-0.173,0.142-0.42-0.025-0.502
		c-0.06-0.03-0.131-0.021-0.196-0.008c-0.2,0.042-0.389,0.124-0.576,0.206c-0.345,0.151-0.69,0.302-1.035,0.453
		c-0.261,0.114-0.526,0.231-0.749,0.408c-0.223,0.178-0.403,0.427-0.436,0.711c-0.056,0.481,0.309,0.901,0.671,1.222
		c0.116,0.103,0.24,0.205,0.389,0.249c0.103,0.03,0.212,0.031,0.32,0.027c0.824-0.024,1.641-0.239,2.37-0.621"/>
	<path fill="#FFFFFF" d="M191.826,121.622c-0.628-0.363-0.924-1.211-0.657-1.886c0.065-0.164,0.135-0.4-0.024-0.478
		c-0.057-0.028-0.125-0.02-0.187-0.007c-0.19,0.04-0.37,0.118-0.548,0.196c-0.328,0.144-0.656,0.287-0.985,0.431
		c-0.249,0.109-0.501,0.219-0.713,0.389c-0.212,0.169-0.384,0.407-0.415,0.676c-0.053,0.458,0.294,0.858,0.639,1.163
		c0.111,0.098,0.228,0.195,0.37,0.237c0.098,0.029,0.202,0.029,0.304,0.026c0.784-0.023,1.562-0.227,2.256-0.591"/>
	<path fill="#FFFFFF" d="M188.414,122.21c-0.589-0.423-0.799-1.297-0.466-1.942c0.081-0.157,0.174-0.384,0.024-0.478
		c-0.054-0.034-0.122-0.032-0.185-0.026c-0.193,0.02-0.38,0.08-0.565,0.14c-0.341,0.11-0.682,0.22-1.023,0.33
		c-0.258,0.083-0.52,0.168-0.748,0.316c-0.228,0.147-0.423,0.366-0.481,0.632c-0.099,0.45,0.206,0.883,0.52,1.221
		c0.1,0.108,0.208,0.217,0.345,0.273c0.095,0.038,0.198,0.049,0.3,0.056c0.782,0.055,1.576-0.07,2.304-0.363"/>
	<path fill="#FFFFFF" d="M184.951,122.546c-0.499-0.359-0.677-1.099-0.395-1.645c0.069-0.133,0.148-0.325,0.021-0.405
		c-0.046-0.029-0.103-0.028-0.157-0.022c-0.164,0.017-0.322,0.068-0.478,0.119c-0.289,0.093-0.578,0.186-0.866,0.28
		c-0.219,0.071-0.441,0.143-0.634,0.267c-0.193,0.125-0.358,0.31-0.407,0.535c-0.084,0.381,0.175,0.748,0.44,1.034
		c0.085,0.092,0.176,0.184,0.292,0.231c0.08,0.033,0.168,0.042,0.254,0.048c0.663,0.047,1.336-0.059,1.952-0.308"/>
	<path fill="#FFFFFF" d="M181.635,122.99c-0.439-0.316-0.596-0.968-0.347-1.449c0.061-0.117,0.13-0.287,0.018-0.357
		c-0.04-0.025-0.091-0.024-0.138-0.019c-0.144,0.015-0.283,0.06-0.421,0.105c-0.254,0.082-0.509,0.164-0.763,0.246
		c-0.193,0.062-0.388,0.126-0.558,0.235c-0.17,0.11-0.315,0.273-0.359,0.471c-0.074,0.336,0.154,0.659,0.388,0.911
		c0.075,0.081,0.155,0.162,0.257,0.203c0.071,0.029,0.148,0.037,0.224,0.042c0.583,0.041,1.176-0.052,1.719-0.271"/>
	<path fill="#FFFFFF" d="M178.75,123.114c-0.407-0.293-0.552-0.897-0.322-1.342c0.056-0.109,0.12-0.265,0.017-0.33
		c-0.037-0.023-0.084-0.022-0.128-0.018c-0.134,0.014-0.263,0.056-0.39,0.097c-0.236,0.076-0.471,0.152-0.707,0.228
		c-0.179,0.058-0.359,0.116-0.517,0.218c-0.158,0.102-0.292,0.253-0.332,0.436c-0.068,0.311,0.143,0.61,0.359,0.844
		c0.069,0.075,0.144,0.15,0.238,0.188c0.065,0.027,0.137,0.034,0.207,0.039c0.541,0.038,1.09-0.048,1.592-0.251"/>
	<path fill="#FFFFFF" d="M175.934,123.385c-0.333-0.24-0.452-0.734-0.264-1.099c0.046-0.089,0.099-0.217,0.014-0.27
		c-0.03-0.019-0.069-0.018-0.105-0.015c-0.109,0.012-0.215,0.045-0.32,0.079c-0.193,0.062-0.386,0.125-0.579,0.187
		c-0.146,0.047-0.294,0.095-0.423,0.179c-0.129,0.083-0.239,0.207-0.272,0.357c-0.056,0.255,0.117,0.5,0.294,0.691
		c0.057,0.061,0.118,0.123,0.195,0.154c0.054,0.022,0.112,0.028,0.17,0.032c0.443,0.031,0.892-0.04,1.304-0.205"/>
	<path fill="#FFFFFF" d="M173.792,123.465c-0.307-0.273-0.374-0.777-0.149-1.12c0.055-0.084,0.12-0.206,0.042-0.268
		c-0.028-0.022-0.067-0.025-0.103-0.025c-0.11,0-0.219,0.023-0.326,0.046c-0.198,0.042-0.397,0.084-0.595,0.126
		c-0.15,0.032-0.303,0.064-0.44,0.134c-0.137,0.069-0.259,0.181-0.308,0.327c-0.082,0.247,0.065,0.509,0.221,0.717
		c0.05,0.067,0.104,0.134,0.178,0.174c0.051,0.027,0.109,0.039,0.166,0.049c0.437,0.077,0.891,0.053,1.318-0.07"/>
	<path fill="#FFFFFF" d="M171.38,123.536c-0.215-0.256-0.208-0.67,0.014-0.92c0.054-0.061,0.122-0.152,0.065-0.211
		c-0.02-0.021-0.051-0.028-0.08-0.033c-0.089-0.013-0.179-0.007-0.268-0.002c-0.165,0.01-0.329,0.02-0.494,0.031
		c-0.125,0.008-0.251,0.016-0.37,0.055c-0.119,0.04-0.23,0.115-0.287,0.227c-0.095,0.19-0.009,0.418,0.093,0.604
		c0.032,0.06,0.068,0.121,0.123,0.161c0.038,0.028,0.083,0.045,0.128,0.059c0.343,0.114,0.712,0.149,1.069,0.101"/>
	<path fill="#FFFFFF" d="M169.513,123.405c-0.215-0.256-0.208-0.67,0.014-0.92c0.054-0.061,0.122-0.152,0.065-0.211
		c-0.02-0.021-0.051-0.028-0.08-0.033c-0.089-0.013-0.179-0.007-0.268-0.002c-0.165,0.01-0.329,0.02-0.494,0.031
		c-0.125,0.008-0.251,0.016-0.37,0.055c-0.119,0.04-0.23,0.115-0.287,0.227c-0.095,0.19-0.009,0.418,0.093,0.604
		c0.032,0.06,0.068,0.121,0.123,0.161c0.038,0.028,0.083,0.045,0.128,0.059c0.343,0.114,0.712,0.149,1.069,0.101"/>
	<path fill="#FFFFFF" d="M167.695,123.422c-0.215-0.256-0.208-0.67,0.014-0.92c0.054-0.061,0.122-0.152,0.065-0.211
		c-0.02-0.021-0.051-0.028-0.08-0.033c-0.089-0.013-0.179-0.007-0.268-0.002c-0.165,0.01-0.329,0.02-0.494,0.031
		c-0.125,0.008-0.251,0.016-0.37,0.055c-0.119,0.04-0.23,0.115-0.287,0.227c-0.095,0.19-0.009,0.418,0.093,0.604
		c0.032,0.06,0.068,0.121,0.123,0.161c0.038,0.028,0.083,0.045,0.128,0.059c0.343,0.114,0.712,0.149,1.069,0.101"/>
	<path fill="#FFFFFF" d="M165.954,123.214c-0.187-0.224-0.182-0.585,0.012-0.803c0.047-0.053,0.106-0.132,0.057-0.184
		c-0.018-0.018-0.044-0.025-0.07-0.028c-0.077-0.011-0.156-0.007-0.234-0.002c-0.144,0.009-0.287,0.018-0.431,0.027
		c-0.109,0.007-0.219,0.014-0.323,0.048c-0.103,0.035-0.201,0.101-0.25,0.198c-0.083,0.165-0.007,0.364,0.081,0.527
		c0.028,0.052,0.059,0.105,0.107,0.14c0.033,0.024,0.072,0.039,0.111,0.052c0.299,0.099,0.621,0.13,0.933,0.088"/>
	<path fill="#FFFFFF" d="M164.26,122.972c-0.175-0.208-0.17-0.545,0.011-0.748c0.044-0.05,0.099-0.123,0.053-0.171
		c-0.016-0.017-0.041-0.023-0.065-0.027c-0.072-0.011-0.145-0.006-0.218-0.002c-0.134,0.008-0.268,0.017-0.402,0.025
		c-0.102,0.006-0.204,0.013-0.301,0.045c-0.096,0.032-0.187,0.094-0.233,0.185c-0.078,0.154-0.007,0.34,0.075,0.492
		c0.026,0.049,0.055,0.098,0.1,0.131c0.031,0.023,0.067,0.036,0.104,0.048c0.279,0.093,0.579,0.121,0.87,0.082"/>
	<path fill="#FFFFFF" d="M162.554,122.878c-0.155-0.185-0.151-0.485,0.01-0.665c0.039-0.044,0.088-0.11,0.047-0.152
		c-0.015-0.015-0.037-0.021-0.058-0.024c-0.064-0.009-0.129-0.005-0.194-0.001c-0.119,0.007-0.238,0.015-0.357,0.022
		c-0.09,0.006-0.182,0.011-0.267,0.04c-0.086,0.029-0.167,0.083-0.207,0.164c-0.069,0.137-0.006,0.302,0.067,0.437
		c0.023,0.043,0.049,0.087,0.089,0.116c0.027,0.02,0.06,0.032,0.092,0.043c0.248,0.082,0.515,0.107,0.773,0.073"/>
	<path fill="#FFFFFF" d="M161.158,122.83c-0.136-0.162-0.132-0.424,0.009-0.582c0.034-0.039,0.077-0.096,0.041-0.133
		c-0.013-0.013-0.032-0.018-0.05-0.021c-0.056-0.008-0.113-0.005-0.17-0.001c-0.104,0.006-0.208,0.013-0.313,0.019
		c-0.079,0.005-0.159,0.01-0.234,0.035c-0.075,0.025-0.146,0.073-0.181,0.144c-0.06,0.12-0.005,0.264,0.059,0.382
		c0.021,0.038,0.043,0.076,0.078,0.102c0.024,0.018,0.052,0.028,0.081,0.038c0.217,0.072,0.45,0.094,0.677,0.064"/>
	<path fill="#FFFFFF" d="M157.024,122.744l3.014-0.655c0,0-0.197,0.612,0.098,0.754L157.024,122.744z"/>
	<g>
		<path fill="#4378BB" d="M111.472,43.424c7.935,1.917,16.23,0.222,23.983-2.035c15.386-3.007,31.392,3.863,39.825,17.027
			c4.422,6.577,7.135,14.037,8.953,21.58c-4.356-14.403-13.227-29.054-28.288-33.658c-6.511-1.97-13.818-2.31-20.319-0.231
			c-8.164,2.855-17.257,4.873-25.931,3.049C109.696,49.155,111.472,43.424,111.472,43.424L111.472,43.424z"/>
		<path fill="#EC2024" d="M113.829,41.695c7.595,1.884,15.556,0.241,22.971-2.007c15.241-3.216,31.07,4.176,38.959,17.321
			c4.155,6.537,6.703,13.855,8.414,21.249c-5.096-17.896-17.432-35.414-37.666-35.273c-3.053,0.016-6.423,0.338-9.103,1.298
			c-6.935,2.584-14.524,4.318-22.036,3.686c-1.166-0.117-2.185-0.239-3.369-0.56C111.999,47.409,113.829,41.695,113.829,41.695
			L113.829,41.695z"/>
		<path fill="#EC2024" d="M134.23,40.377c2.912,0.306,5.585,0.858,8.327,1.758c2.57,0.884,5.419,2.13,6.927,4.481
			c-4.178-3.057-10.219-2.04-14.978-1.247C134.507,45.369,134.23,40.377,134.23,40.377L134.23,40.377z"/>
		<path fill="#EC2024" d="M155.208,40.678c3.86,2.706,8.373,5.876,9.428,10.724c-1.976-4.197-6.8-6.133-10.852-7.744
			C153.785,43.659,155.208,40.678,155.208,40.678L155.208,40.678z"/>
	</g>
	<path fill="#FBF7C6" d="M88.679,41.782c1.999,0.379,3.943-0.702,5.795-1.545c2.347-1.068,4.845-1.802,7.397-2.172
		c1.594-0.231,3.271-0.312,4.768,0.284c0.926,0.368,1.733,0.976,2.527,1.577c1.376,1.041,2.753,2.081,4.129,3.122
		c1.032,0.78,2.181,1.83,1.98,3.108c-0.169,1.07-1.283,1.773-2.361,1.882c-1.078,0.109-2.144-0.224-3.2-0.465
		c-1.824-0.417-3.843-0.539-5.469,0.388c-0.493,0.281-0.932,0.649-1.431,0.919c-0.64,0.347-1.364,0.522-2.09,0.573
		c-3.55,0.252-6.63-2.301-10.047-3.295c-0.839-0.244-1.718-0.4-2.478-0.831c-0.76-0.431-1.396-1.229-1.318-2.1
		C86.959,42.356,87.945,41.308,88.679,41.782"/>
</g>
<polyline fill="none" stroke="#515252" stroke-width="0.25" stroke-miterlimit="10" points="193.355,13.641 184.592,13.641 
	133.86,53.98 "/>
<polyline fill="none" stroke="#515252" stroke-width="0.25" stroke-miterlimit="10" points="193.355,20.725 184.577,20.725 
	133.131,58.611 "/>
<polyline fill="none" stroke="#515252" stroke-width="0.25" stroke-miterlimit="10" points="193.355,27.706 184.919,27.706 
	153.084,52.512 "/>
<polyline fill="none" stroke="#515252" stroke-width="0.25" stroke-miterlimit="10" points="193.355,34.6 184.773,34.6 
	149.485,59.199 "/>
<polyline fill="none" stroke="#515252" stroke-width="0.25" stroke-miterlimit="10" points="193.355,40.92 185.17,40.932 
	152.239,61.749 "/>
<polyline fill="none" stroke="#515252" stroke-width="0.25" stroke-miterlimit="10" points="193.355,47.815 185.829,47.825 
	164.59,59.632 "/>
<polyline fill="none" stroke="#515252" stroke-width="0.25" stroke-miterlimit="10" points="193.355,55.127 185.829,55.133 
	164.59,63.868 "/>
<polyline fill="none" stroke="#515252" stroke-width="0.25" stroke-miterlimit="10" points="193.355,61.251 185.738,61.259 
	143.507,78.854 "/>
<polyline fill="none" stroke="#515252" stroke-width="0.25" stroke-miterlimit="10" points="193.355,67.88 185.791,67.885 
	159.205,75.109 "/>
<polyline fill="none" stroke="#515252" stroke-width="0.25" stroke-miterlimit="10" points="193.355,82.768 186.851,82.765 
	173.17,79.346 "/>
<polyline fill="none" stroke="#515252" stroke-width="0.25" stroke-miterlimit="10" points="47.992,56.335 58.359,56.335 
	134.369,64.494 "/>
<polyline fill="none" stroke="#515252" stroke-width="0.25" stroke-miterlimit="10" points="47.992,66.888 58.359,66.888 
	138.755,70.068 "/>
<polyline fill="none" stroke="#515252" stroke-width="0.25" stroke-miterlimit="10" points="47.992,78.867 58.359,78.867 
	106.452,71.216 "/>
<polyline fill="none" stroke="#515252" stroke-width="0.25" stroke-miterlimit="10" points="47.992,23.181 58.359,23.181 
	99.762,40.157 "/>
<polyline fill="none" stroke="#515252" stroke-width="0.25" stroke-miterlimit="10" points="83.221,93.11 66.238,110.941 
	47.992,110.941 "/>
<polyline fill="none" stroke="#515252" stroke-width="0.25" stroke-miterlimit="10" points="104.323,92.458 68.197,112.998 
	47.992,112.998 "/>
<ellipse transform="matrix(0.9241 -0.3822 0.3822 0.9241 -17.2405 68.0073)" fill="#4670B6" cx="162.538" cy="77.394" rx="1.098" ry="1.473"/>
<polyline fill="none" stroke="#515252" stroke-width="0.25" stroke-miterlimit="10" points="193.355,75.401 186.007,75.402 
	162.981,77.394 "/>
<g>
	<text transform="matrix(1 0 0 1 197.3051 29.3072)" font-family="'ArialMT'" font-size="5px">Adrenal gland </text>
</g>
<g>
	<text transform="matrix(1 0 0 1 197.2979 15.6871)" font-family="'ArialMT'" font-size="5px">Lung </text>
</g>
<g>
	<text transform="matrix(1 0 0 1 197.2972 22.4966)" font-family="'ArialMT'" font-size="5px">Ovary</text>
</g>
<g>
	<text transform="matrix(1 0 0 1 197.297 36.1171)" font-family="'ArialMT'" font-size="5px">Spleen </text>
</g>
<g>
	<text transform="matrix(1 0 0 1 197.2975 42.9272)" font-family="'ArialMT'" font-size="5px">Pancreas </text>
</g>
<g>
	<text transform="matrix(1 0 0 1 197.2976 49.7371)" font-family="'ArialMT'" font-size="5px">Kidney </text>
</g>
<g>
	<text transform="matrix(1 0 0 1 197.2976 63.357)" font-family="'ArialMT'" font-size="5px">Large intestine </text>
</g>
<g>
	<text transform="matrix(1 0 0 1 197.2976 56.5471)" font-family="'ArialMT'" font-size="5px">Intestine </text>
</g>
<g>
	<text transform="matrix(1 0 0 1 197.2972 70.1663)" font-family="'ArialMT'" font-size="5px">Testis</text>
</g>
<g>
	<text transform="matrix(1 0 0 1 197.2972 76.977)" font-family="'ArialMT'" font-size="5px">Urinary bladder</text>
</g>
<g>
	<text transform="matrix(1 0 0 1 34.0732 24.5555)" font-family="'ArialMT'" font-size="5px">Brain</text>
</g>
<g>
	<text transform="matrix(1 0 0 1 24.3477 34.3821)" font-family="'ArialMT'" font-size="5px">Forebrain</text>
</g>
<text transform="matrix(1 0 0 1 20.1796 52.2714)" font-family="'ArialMT'" font-size="5px">Cerebellum</text>
<polyline fill="none" stroke="#000000" stroke-width="0.25" stroke-miterlimit="10" points="47.789,50.709 64.365,50.709 
	107.556,48.058 "/>
<g>
	<text transform="matrix(1 0 0 1 33.5194 112.9978)" font-family="'ArialMT'" font-size="5px"> Limb</text>
</g>
<g>
	<text transform="matrix(1 0 0 1 197.2977 83.7871)" font-family="'ArialMT'" font-size="5px">Colon </text>
</g>
<path fill="#F8A872" d="M91.548,41.603c-1.247,0.455-2.581,0.066-3.874,0.196c-0.297,0.03-0.615,0.101-0.828,0.366
	c-0.172,0.213-0.25,0.526-0.262,0.831c-0.033,0.841,0.383,1.613,0.879,2.172c1.149,1.295,2.834,1.774,4.308,1.224
	c0.343-0.128,0.735-0.427,0.703-0.879c-0.013-0.185-0.1-0.346-0.166-0.512c-0.181-0.453-0.22-0.995-0.107-1.482
	c0.133-0.573,0.464-1.186,0.232-1.706c-0.165-0.368-0.612-0.464-0.863-0.185"/>
<polyline fill="none" stroke="#515252" stroke-width="0.25" stroke-miterlimit="10" points="47.992,33.094 58.359,33.094 
	90.484,42.84 "/>
<polyline fill="none" stroke="#515252" stroke-width="0.25" stroke-miterlimit="10" points="144.645,41.466 184.204,7.302 
	193.457,7.302 "/>
<text transform="matrix(1 0 0 1 197.3054 8.8767)" fill="#231F20" font-family="'ArialMT'" font-size="5px">Adipose tissues </text>
<polyline fill="none" stroke="#515252" stroke-width="0.25" stroke-miterlimit="10" points="92.513,85.467 68.096,100.437 
	47.992,100.437 "/>
<text transform="matrix(1 0 0 1 16.0125 103.1712)" fill="#231F20" font-family="'ArialMT'" font-size="5px">Bone marrow</text>
<polyline fill="none" stroke="#515252" stroke-width="0.25" stroke-miterlimit="10" points="159.325,104.223 150.706,117.66 
	132.415,117.66 "/>
<text transform="matrix(1 0 0 1 96.0153 118.4452)" fill="#231F20" font-family="'ArialMT'" font-size="5px">Skeletal muscle </text>
<polyline fill="none" stroke="#515252" stroke-width="0.25" stroke-miterlimit="10" points="101.087,75.831 68.325,89.177 
	47.992,89.177 "/>
<polyline fill="none" stroke="#515252" stroke-width="0.25" stroke-miterlimit="10" points="90.677,46.669 60.596,42.742 
	47.992,42.742 "/>
<text transform="matrix(1 0 0 1 14.8992 44.2096)" fill="#231F20" font-family="'ArialMT'" font-size="5px">Olfactory bulb</text>
</svg>
